<svg xmlns="http://www.w3.org/2000/svg" viewBox="0 0 24 24"><path d="M12 7c-.55 0-1-.45-1-1V2c0-.55.45-1 1-1s1 .45 1 1v4c0 .55-.45 1-1 1zm0 16c-.55 0-1-.45-1-1v-4c0-.55.45-1 1-1s1 .45 1 1v4c0 .55-.45 1-1 1zm10-10h-4c-.55 0-1-.45-1-1s.45-1 1-1h4c.55 0 1 .45 1 1s-.45 1-1 1zM6 13H2c-.55 0-1-.45-1-1s.45-1 1-1h4c.55 0 1 .45 1 1s-.45 1-1 1zm13.07 7.07c-.26 0-.51-.1-.71-.29l-2.83-2.83a.996.996 0 1 1 1.41-1.41l2.83 2.83a.996.996 0 0 1-.71 1.7zM7.76 8.76c-.26 0-.51-.1-.71-.29L4.22 5.64a.996.996 0 1 1 1.41-1.41l2.83 2.83a.996.996 0 0 1-.71 1.7zM4.93 20.07c-.26 0-.51-.1-.71-.29a.996.996 0 0 1 0-1.41l2.83-2.83a.996.996 0 1 1 1.41 1.41l-2.83 2.83c-.2.2-.45.29-.71.29zM16.24 8.76c-.26 0-.51-.1-.71-.29a.996.996 0 0 1 0-1.41l2.83-2.83a.996.996 0 1 1 1.41 1.41l-2.83 2.83c-.2.2-.45.29-.71.29z"/></svg>